<?xml version="1.0" encoding="UTF-8"?>
<svg xmlns="http://www.w3.org/2000/svg" style="stroke-dasharray:none; shape-rendering:auto; font-family:'Arial'; text-rendering:auto; fill-opacity:1; color-interpolation:auto; color-rendering:auto; font-size:12; fill:black; stroke:black; image-rendering:auto; stroke-miterlimit:10; stroke-linecap:square; stroke-linejoin:miter; font-style:normal; stroke-width:1; stroke-dashoffset:0; font-weight:normal; stroke-opacity:1;" contentScriptType="text/ecmascript" preserveAspectRatio="xMidYMid meet" zoomAndPan="magnify" version="1.0" contentStyleType="text/css" xml:xlink="http://www.w3.org/1999/xlink" width="821" height="625"><rect x="20" y="480" width="801" height="145" ry="0" rx="0" style="stroke:#000000; fill:#D6E0D0" /><g componentSequence="7"><text x="-552" y="27" transform="rotate(270)" text-anchor="middle" style="font-weight:bold;font-size:10px;stroke:none; fill:#434343"><tspan dy="14" x="-552">CEO</tspan></text></g><rect x="20" y="338" width="801" height="145" ry="0" rx="0" style="stroke:#000000; fill:#D0DAAE" /><g componentSequence="6"><text x="-410" y="27" transform="rotate(270)" text-anchor="middle" style="font-weight:bold;font-size:10px;stroke:none; fill:#434343"><tspan dy="14" x="-410">Administrativo</tspan></text></g><rect x="20" y="194" width="801" height="145" ry="0" rx="0" style="stroke:#000000; fill:#ADC9AC" /><g componentSequence="5"><text x="-266" y="27" transform="rotate(270)" text-anchor="middle" style="font-weight:bold;font-size:10px;stroke:none; fill:#434343"><tspan dy="14" x="-266">RH</tspan></text></g><rect x="20" y="50" width="801" height="145" ry="0" rx="0" style="stroke:#000000; fill:#82B0B7" /><g componentSequence="4"><text x="-122" y="27" transform="rotate(270)" text-anchor="middle" style="font-weight:bold;font-size:10px;stroke:none; fill:#434343"><tspan dy="14" x="-122">Gestor</tspan></text></g><g sequence="1"><ellipse cx="127" cy="123" rx="17" ry="17" stroke-width="1" style="fill:url(#linearGradient66FF6696FF96B6FFB6_1476386478);" stroke="336633" /></g><g sequence="8"><rect x="75" y="220" width="106" height="56" ry="5" rx="5" style="fill:url(#linearGradientF8FBFEEDF5FCDEEDFAD4E7F8E2E5E9_1496853025);" stroke="191970" /></g><g componentSequence="8"><text x="128" y="237" text-anchor="middle" style="font-weight:bold;font-size:10px;stroke:none; fill:#333399"><tspan dy="14" x="128">Aprovar RH</tspan></text></g><g sequence="10"><polygon points=" 260 227 290 197 320 227 290 257 260 227" style="fill:url(#linearGradientFAFBFCFFFFCC_1560786398);" stroke="000000" /></g><g componentSequence="10"><text x="290" y="267" text-anchor="middle" style="font-weight:bold;font-size:10px;stroke:none; fill:#333399"><tspan dy="14" x="290">Exclusiv</tspan><tspan dy="14" x="290">o</tspan></text></g><g sequence="13"><rect x="237" y="370" width="106" height="84" ry="5" rx="5" style="fill:url(#linearGradientF8FBFEEDF5FCDEEDFAD4E7F8E2E5E9_402989082);" stroke="191970" /></g><g componentSequence="13"><text x="290" y="385" text-anchor="middle" style="font-weight:bold;font-size:10px;stroke:none; fill:#333399"><tspan dy="14" x="290">Aprovar</tspan><tspan dy="14" x="290">Adm/Financeiro</tspan></text></g><g sequence="15"><polygon points=" 422 391 452 361 482 391 452 421 422 391" style="fill:url(#linearGradientFAFBFCFFFFCC_833001242);" stroke="000000" /></g><g componentSequence="15"><text x="452" y="431" text-anchor="middle" style="font-weight:bold;font-size:10px;stroke:none; fill:#333399"><tspan dy="14" x="452">Exclusiv</tspan><tspan dy="14" x="452">o</tspan></text></g><g sequence="18"><ellipse cx="397" cy="247" rx="17" ry="17" stroke-width="3" style="fill:url(#linearGradientFF6666FF9696FFB6B6_702011949);" stroke="993333" /></g><g sequence="20"><rect x="400" y="543" width="106" height="56" ry="5" rx="5" style="fill:url(#linearGradientF8FBFEEDF5FCDEEDFAD4E7F8E2E5E9_1235104652);" stroke="191970" /></g><g componentSequence="20"><text x="453" y="560" text-anchor="middle" style="font-weight:bold;font-size:10px;stroke:none; fill:#333399"><tspan dy="14" x="453">Aprovar CEO</tspan></text></g><g sequence="22"><polygon points=" 570 550 600 520 630 550 600 580 570 550" style="fill:url(#linearGradientFAFBFCFFFFCC_2016075605);" stroke="000000" /></g><g componentSequence="22"><text x="600" y="590" text-anchor="middle" style="font-weight:bold;font-size:10px;stroke:none; fill:#333399"><tspan dy="14" x="600">Exclusiv</tspan><tspan dy="14" x="600">o</tspan></text></g><g sequence="24"><rect x="675" y="233" width="106" height="70" ry="5" rx="5" style="fill:url(#linearGradientF8FBFEEDF5FCDEEDFAD4E7F8E2E5E9_2100398349);" stroke="191970" /></g><g componentSequence="24"><text x="728" y="248" text-anchor="middle" style="font-weight:bold;font-size:10px;stroke:none; fill:#333399"><tspan dy="14" x="728">Seleção de</tspan><tspan dy="14" x="728">Vaga</tspan></text></g><g sequence="26"><ellipse cx="727" cy="570" rx="17" ry="17" stroke-width="3" style="fill:url(#linearGradientFF6666FF9696FFB6B6_1788883508);" stroke="993333" /></g><g sequence="30"><ellipse cx="567" cy="411" rx="17" ry="17" stroke-width="1" style="fill:url(#linearGradientFFFF66FFFF96FFFFB6_1385856703);" stroke="999900" /></g><g sequence="30"><polygon points=" 553 404 568 404 568 397 583 412 568 427 568 420 553 420" style="stroke:none; fill:#999900" /></g><g sequence="32"><ellipse cx="127" cy="317" rx="17" ry="17" stroke-width="1" style="fill:url(#linearGradientFFFF66FFFF96FFFFB6_2086978510);" stroke="999900" /></g><g sequence="32"><polygon points=" 113 310 128 310 128 303 143 318 128 333 128 326 113 326" style="stroke:#999900; fill:none" /></g><g componentSequence="9"><text x="137" y="180" style="font-size:10px;font-weight:none;stroke:none; fill:#333399" text-anchor="left" /></g><g componentSequence="11"><text x="230" y="248" style="font-size:10px;font-weight:none;stroke:none; fill:#333399" text-anchor="left" /></g><g componentSequence="12"><text x="264" y="123" style="font-size:10px;font-weight:none;stroke:none; fill:#333399" text-anchor="left" /></g><g componentSequence="14"><text x="300" y="334" style="font-size:10px;font-weight:none;stroke:none; fill:#333399" text-anchor="left" /></g><g componentSequence="16"><text x="392" y="412" style="font-size:10px;font-weight:none;stroke:none; fill:#333399" text-anchor="left" /></g><g componentSequence="19"><text x="360" y="247" style="font-size:10px;font-weight:none;stroke:none; fill:#333399" text-anchor="left" /></g><g componentSequence="21"><text x="462" y="503" style="font-size:10px;font-weight:none;stroke:none; fill:#333399" text-anchor="left" /></g><g componentSequence="23"><text x="548" y="571" style="font-size:10px;font-weight:none;stroke:none; fill:#333399" text-anchor="left" /></g><g componentSequence="25"><text x="677" y="411" style="font-size:10px;font-weight:none;stroke:none; fill:#333399" text-anchor="left" /></g><g componentSequence="27"><text x="680" y="570" style="font-size:10px;font-weight:none;stroke:none; fill:#333399" text-anchor="left" /></g><g componentSequence="28"><text x="737" y="428" style="font-size:10px;font-weight:none;stroke:none; fill:#333399" text-anchor="left" /></g><g componentSequence="29"><text x="461" y="286" style="font-size:10px;font-weight:none;stroke:none; fill:#333399" text-anchor="left" /></g><g componentSequence="31"><text x="526" y="411" style="font-size:10px;font-weight:none;stroke:none; fill:#333399" text-anchor="left" /></g><g componentSequence="33"><text x="137" y="288" style="font-size:10px;font-weight:none;stroke:none; fill:#333399" text-anchor="left" /></g><path style="fill:none; stroke:#000000;stroke-width:1" d="M127.0 140.0 L127.0 219.0" /><polygon style="fill:#000000; stroke:#000000;" points=" 132 209 127 219 122 209 127 211" /><path style="fill:none; stroke:#000000;stroke-width:1" d="M290.0 196.0 L290.0 123.0 L145.0 123.0" /><polygon style="fill:#000000; stroke:#000000;" points=" 155 128 145 123 155 118 153 123" /><path style="fill:none; stroke:#000000;stroke-width:1" d="M181.0 248.0 L259.0 248.0" /><polygon style="fill:#000000; stroke:#000000;" points=" 249 243 259 248 249 253 251 248" /><path style="fill:none; stroke:#000000;stroke-width:1" d="M127.0 300.0 L127.0 276.0" /><polygon style="fill:#000000; stroke:#000000;" points=" 122 286 127 276 132 286 127 284" /><path style="fill:none; stroke:#000000;stroke-width:1" d="M290.0 299.0 L290.0 369.0" /><polygon style="fill:#000000; stroke:#000000;" points=" 295 359 290 369 285 359 290 361" /><path style="fill:none; stroke:#000000;stroke-width:1" d="M320.0 247.0 L380.0 247.0" /><polygon style="fill:#000000; stroke:#000000;" points=" 370 242 380 247 370 252 372 247" /><path style="fill:none; stroke:#000000;stroke-width:1" d="M343.0 412.0 L421.0 412.0" /><polygon style="fill:#000000; stroke:#000000;" points=" 411 407 421 412 411 417 413 412" /><path style="fill:none; stroke:#000000;stroke-width:1" d="M452.0 463.0 L452.0 542.0" /><polygon style="fill:#000000; stroke:#000000;" points=" 457 532 452 542 447 532 452 534" /><path style="fill:none; stroke:#000000;stroke-width:1" d="M451.0 360.0 L451.0 247.0 L415.0 247.0" /><polygon style="fill:#000000; stroke:#000000;" points=" 425 252 415 247 425 242 423 247" /><path style="fill:none; stroke:#000000;stroke-width:1" d="M482.0 411.0 L550.0 411.0" /><polygon style="fill:#000000; stroke:#000000;" points=" 540 406 550 411 540 416 542 411" /><path style="fill:none; stroke:#000000;stroke-width:1" d="M506.0 571.0 L569.0 571.0" /><polygon style="fill:#000000; stroke:#000000;" points=" 559 566 569 571 559 576 561 571" /><path style="fill:none; stroke:#000000;stroke-width:1" d="M621.0 519.0 L713.0 303.0" /><polygon style="fill:#000000; stroke:#000000;" points=" 704 310 713 303 714 314 710 310" /><path style="fill:none; stroke:#000000;stroke-width:1" d="M630.0 570.0 L710.0 570.0" /><polygon style="fill:#000000; stroke:#000000;" points=" 700 565 710 570 700 575 702 570" /><path style="fill:none; stroke:#000000;stroke-width:1" d="M727.0 303.0 L727.0 553.0" /><polygon style="fill:#000000; stroke:#000000;" points=" 732 543 727 553 722 543 727 545" /><defs><linearGradient xmlns:xlink="http://www.w3.org/1999/xlink" xlink:href="#linearGradient66FF6696FF96B6FFB6" id="linearGradient66FF6696FF96B6FFB6_1476386478" x1="0" y1="106.0" x2="0" y2="141.0" gradientUnits="userSpaceOnUse" xlink:type="simple" xlink:actuate="onLoad" xlink:show="other" /><linearGradient id="linearGradient66FF6696FF96B6FFB6"><stop style="stop-color:#66FF66;stop-opacity:1;" offset="0.0" id="stop66FF66" /><stop style="stop-color:#96FF96;stop-opacity:1;" offset="0.5" id="stop96FF96" /><stop style="stop-color:#B6FFB6;stop-opacity:1;" offset="1.0" id="stopB6FFB6" /></linearGradient><linearGradient xmlns:xlink="http://www.w3.org/1999/xlink" xlink:href="#linearGradientF8FBFEEDF5FCDEEDFAD4E7F8E2E5E9" id="linearGradientF8FBFEEDF5FCDEEDFAD4E7F8E2E5E9_1496853025" x1="0" y1="220.0" x2="0" y2="326.0" gradientUnits="userSpaceOnUse" xlink:type="simple" xlink:actuate="onLoad" xlink:show="other" /><linearGradient id="linearGradientF8FBFEEDF5FCDEEDFAD4E7F8E2E5E9"><stop style="stop-color:#F8FBFE;stop-opacity:1;" offset="0.0" id="stopF8FBFE" /><stop style="stop-color:#EDF5FC;stop-opacity:1;" offset="0.25" id="stopEDF5FC" /><stop style="stop-color:#DEEDFA;stop-opacity:1;" offset="0.5" id="stopDEEDFA" /><stop style="stop-color:#D4E7F8;stop-opacity:1;" offset="0.75" id="stopD4E7F8" /><stop style="stop-color:#E2E5E9;stop-opacity:1;" offset="1.0" id="stopE2E5E9" /></linearGradient><linearGradient xmlns:xlink="http://www.w3.org/1999/xlink" xlink:href="#linearGradientFAFBFCFFFFCC" id="linearGradientFAFBFCFFFFCC_1560786398" x1="0" y1="197.0" x2="0" y2="257.0" gradientUnits="userSpaceOnUse" xlink:type="simple" xlink:actuate="onLoad" xlink:show="other" /><linearGradient id="linearGradientFAFBFCFFFFCC"><stop style="stop-color:#FAFBFC;stop-opacity:1;" offset="0.0" id="stopFAFBFC" /><stop style="stop-color:#FFFFCC;stop-opacity:1;" offset="1.0" id="stopFFFFCC" /></linearGradient><linearGradient xmlns:xlink="http://www.w3.org/1999/xlink" xlink:href="#linearGradientF8FBFEEDF5FCDEEDFAD4E7F8E2E5E9" id="linearGradientF8FBFEEDF5FCDEEDFAD4E7F8E2E5E9_402989082" x1="0" y1="370.0" x2="0" y2="476.0" gradientUnits="userSpaceOnUse" xlink:type="simple" xlink:actuate="onLoad" xlink:show="other" /><linearGradient xmlns:xlink="http://www.w3.org/1999/xlink" xlink:href="#linearGradientFAFBFCFFFFCC" id="linearGradientFAFBFCFFFFCC_833001242" x1="0" y1="361.0" x2="0" y2="421.0" gradientUnits="userSpaceOnUse" xlink:type="simple" xlink:actuate="onLoad" xlink:show="other" /><linearGradient xmlns:xlink="http://www.w3.org/1999/xlink" xlink:href="#linearGradientFF6666FF9696FFB6B6" id="linearGradientFF6666FF9696FFB6B6_702011949" x1="0" y1="230.0" x2="0" y2="265.0" gradientUnits="userSpaceOnUse" xlink:type="simple" xlink:actuate="onLoad" xlink:show="other" /><linearGradient id="linearGradientFF6666FF9696FFB6B6"><stop style="stop-color:#FF6666;stop-opacity:1;" offset="0.0" id="stopFF6666" /><stop style="stop-color:#FF9696;stop-opacity:1;" offset="0.5" id="stopFF9696" /><stop style="stop-color:#FFB6B6;stop-opacity:1;" offset="1.0" id="stopFFB6B6" /></linearGradient><linearGradient xmlns:xlink="http://www.w3.org/1999/xlink" xlink:href="#linearGradientF8FBFEEDF5FCDEEDFAD4E7F8E2E5E9" id="linearGradientF8FBFEEDF5FCDEEDFAD4E7F8E2E5E9_1235104652" x1="0" y1="543.0" x2="0" y2="649.0" gradientUnits="userSpaceOnUse" xlink:type="simple" xlink:actuate="onLoad" xlink:show="other" /><linearGradient xmlns:xlink="http://www.w3.org/1999/xlink" xlink:href="#linearGradientFAFBFCFFFFCC" id="linearGradientFAFBFCFFFFCC_2016075605" x1="0" y1="520.0" x2="0" y2="580.0" gradientUnits="userSpaceOnUse" xlink:type="simple" xlink:actuate="onLoad" xlink:show="other" /><linearGradient xmlns:xlink="http://www.w3.org/1999/xlink" xlink:href="#linearGradientF8FBFEEDF5FCDEEDFAD4E7F8E2E5E9" id="linearGradientF8FBFEEDF5FCDEEDFAD4E7F8E2E5E9_2100398349" x1="0" y1="233.0" x2="0" y2="339.0" gradientUnits="userSpaceOnUse" xlink:type="simple" xlink:actuate="onLoad" xlink:show="other" /><linearGradient xmlns:xlink="http://www.w3.org/1999/xlink" xlink:href="#linearGradientFF6666FF9696FFB6B6" id="linearGradientFF6666FF9696FFB6B6_1788883508" x1="0" y1="553.0" x2="0" y2="588.0" gradientUnits="userSpaceOnUse" xlink:type="simple" xlink:actuate="onLoad" xlink:show="other" /><linearGradient xmlns:xlink="http://www.w3.org/1999/xlink" xlink:href="#linearGradientFFFF66FFFF96FFFFB6" id="linearGradientFFFF66FFFF96FFFFB6_1385856703" x1="0" y1="394.0" x2="0" y2="429.0" gradientUnits="userSpaceOnUse" xlink:type="simple" xlink:actuate="onLoad" xlink:show="other" /><linearGradient id="linearGradientFFFF66FFFF96FFFFB6"><stop style="stop-color:#FFFF66;stop-opacity:1;" offset="0.0" id="stopFFFF66" /><stop style="stop-color:#FFFF96;stop-opacity:1;" offset="0.5" id="stopFFFF96" /><stop style="stop-color:#FFFFB6;stop-opacity:1;" offset="1.0" id="stopFFFFB6" /></linearGradient><linearGradient xmlns:xlink="http://www.w3.org/1999/xlink" xlink:href="#linearGradientFFFF66FFFF96FFFFB6" id="linearGradientFFFF66FFFF96FFFFB6_2086978510" x1="0" y1="300.0" x2="0" y2="335.0" gradientUnits="userSpaceOnUse" xlink:type="simple" xlink:actuate="onLoad" xlink:show="other" /></defs></svg>
